<mxfile host="app.diagrams.net" agent="Mozilla/5.0 (Windows NT 10.0; Win64; x64) AppleWebKit/537.36 (KHTML, like Gecko) Chrome/128.0.0.0 Safari/537.36" version="24.7.12">
  <diagram name="Page-1" id="wW6CuHZ5RSsxlySDq5qU">
    <mxGraphModel dx="880" dy="460" grid="1" gridSize="10" guides="1" tooltips="1" connect="1" arrows="1" fold="1" page="1" pageScale="1" pageWidth="850" pageHeight="1400" math="0" shadow="0">
      <root>
        <mxCell id="0" />
        <mxCell id="1" parent="0" />
        <mxCell id="mIeEXwpx3l7NrJqoONpe-9" style="edgeStyle=orthogonalEdgeStyle;rounded=0;orthogonalLoop=1;jettySize=auto;html=1;exitX=0;exitY=0.5;exitDx=0;exitDy=0;entryX=0.5;entryY=1;entryDx=0;entryDy=0;" parent="1" source="mIeEXwpx3l7NrJqoONpe-2" target="mIeEXwpx3l7NrJqoONpe-4" edge="1">
          <mxGeometry relative="1" as="geometry">
            <Array as="points">
              <mxPoint x="160" y="700" />
              <mxPoint x="160" y="500" />
              <mxPoint x="100" y="500" />
            </Array>
          </mxGeometry>
        </mxCell>
        <mxCell id="mIeEXwpx3l7NrJqoONpe-11" style="edgeStyle=orthogonalEdgeStyle;rounded=0;orthogonalLoop=1;jettySize=auto;html=1;exitX=1;exitY=0.5;exitDx=0;exitDy=0;entryX=0.5;entryY=1;entryDx=0;entryDy=0;" parent="1" source="mIeEXwpx3l7NrJqoONpe-2" target="mIeEXwpx3l7NrJqoONpe-5" edge="1">
          <mxGeometry relative="1" as="geometry">
            <Array as="points">
              <mxPoint x="650" y="700" />
              <mxPoint x="650" y="510" />
              <mxPoint x="730" y="510" />
            </Array>
          </mxGeometry>
        </mxCell>
        <mxCell id="mIeEXwpx3l7NrJqoONpe-13" style="edgeStyle=orthogonalEdgeStyle;rounded=0;orthogonalLoop=1;jettySize=auto;html=1;exitX=0.5;exitY=1;exitDx=0;exitDy=0;entryX=0.5;entryY=0;entryDx=0;entryDy=0;" parent="1" source="mIeEXwpx3l7NrJqoONpe-2" target="mIeEXwpx3l7NrJqoONpe-6" edge="1">
          <mxGeometry relative="1" as="geometry" />
        </mxCell>
        <mxCell id="mIeEXwpx3l7NrJqoONpe-2" value="&lt;h1&gt;Web Pembayaran SPP&lt;/h1&gt;" style="ellipse;whiteSpace=wrap;html=1;aspect=fixed;" parent="1" vertex="1">
          <mxGeometry x="327" y="603" width="195" height="195" as="geometry" />
        </mxCell>
        <mxCell id="mIeEXwpx3l7NrJqoONpe-7" style="edgeStyle=orthogonalEdgeStyle;rounded=0;orthogonalLoop=1;jettySize=auto;html=1;exitX=1;exitY=0.5;exitDx=0;exitDy=0;entryX=0.5;entryY=0;entryDx=0;entryDy=0;" parent="1" source="mIeEXwpx3l7NrJqoONpe-4" target="mIeEXwpx3l7NrJqoONpe-2" edge="1">
          <mxGeometry relative="1" as="geometry">
            <Array as="points">
              <mxPoint x="200" y="450" />
              <mxPoint x="200" y="542" />
              <mxPoint x="424" y="542" />
            </Array>
          </mxGeometry>
        </mxCell>
        <mxCell id="mIeEXwpx3l7NrJqoONpe-4" value="administrator" style="rounded=0;whiteSpace=wrap;html=1;" parent="1" vertex="1">
          <mxGeometry x="40" y="420" width="120" height="60" as="geometry" />
        </mxCell>
        <mxCell id="mIeEXwpx3l7NrJqoONpe-12" style="edgeStyle=orthogonalEdgeStyle;rounded=0;orthogonalLoop=1;jettySize=auto;html=1;exitX=0;exitY=0.5;exitDx=0;exitDy=0;entryX=0.5;entryY=0;entryDx=0;entryDy=0;" parent="1" source="mIeEXwpx3l7NrJqoONpe-5" target="mIeEXwpx3l7NrJqoONpe-2" edge="1">
          <mxGeometry relative="1" as="geometry">
            <Array as="points">
              <mxPoint x="600" y="450" />
              <mxPoint x="600" y="540" />
              <mxPoint x="424" y="540" />
            </Array>
          </mxGeometry>
        </mxCell>
        <mxCell id="mIeEXwpx3l7NrJqoONpe-5" value="Petugas" style="rounded=0;whiteSpace=wrap;html=1;" parent="1" vertex="1">
          <mxGeometry x="670" y="420" width="120" height="60" as="geometry" />
        </mxCell>
        <mxCell id="mIeEXwpx3l7NrJqoONpe-6" value="Siswa" style="rounded=0;whiteSpace=wrap;html=1;" parent="1" vertex="1">
          <mxGeometry x="365" y="1070" width="120" height="60" as="geometry" />
        </mxCell>
        <mxCell id="mIeEXwpx3l7NrJqoONpe-14" style="edgeStyle=orthogonalEdgeStyle;rounded=0;orthogonalLoop=1;jettySize=auto;html=1;exitX=0.75;exitY=0;exitDx=0;exitDy=0;entryX=0.656;entryY=0.959;entryDx=0;entryDy=0;entryPerimeter=0;" parent="1" source="mIeEXwpx3l7NrJqoONpe-6" target="mIeEXwpx3l7NrJqoONpe-2" edge="1">
          <mxGeometry relative="1" as="geometry" />
        </mxCell>
        <mxCell id="mIeEXwpx3l7NrJqoONpe-15" value="Data Login Administrator&lt;div&gt;Data Siswa&lt;/div&gt;&lt;div&gt;Data Petugas&lt;br&gt;&lt;div&gt;Data kelas&lt;/div&gt;&lt;/div&gt;&lt;div&gt;Data spp&lt;/div&gt;" style="text;html=1;align=center;verticalAlign=middle;whiteSpace=wrap;rounded=0;" parent="1" vertex="1">
          <mxGeometry x="185" y="430" width="180" height="120" as="geometry" />
        </mxCell>
        <mxCell id="mIeEXwpx3l7NrJqoONpe-16" value="Data Login Petugas" style="text;html=1;align=center;verticalAlign=middle;whiteSpace=wrap;rounded=0;" parent="1" vertex="1">
          <mxGeometry x="460" y="420" width="170" height="120" as="geometry" />
        </mxCell>
        <mxCell id="mIeEXwpx3l7NrJqoONpe-17" value="Data Login Siswa&lt;div&gt;Data pembayaran spp&lt;/div&gt;" style="text;html=1;align=center;verticalAlign=middle;whiteSpace=wrap;rounded=0;" parent="1" vertex="1">
          <mxGeometry x="460" y="840" width="200" height="120" as="geometry" />
        </mxCell>
        <mxCell id="mIeEXwpx3l7NrJqoONpe-19" value="Data history pembayaran&lt;div&gt;Data laporan&lt;/div&gt;" style="text;html=1;align=center;verticalAlign=middle;whiteSpace=wrap;rounded=0;" parent="1" vertex="1">
          <mxGeometry x="10" y="470" width="150" height="120" as="geometry" />
        </mxCell>
        <mxCell id="mIeEXwpx3l7NrJqoONpe-20" value="data history pembayaran&lt;div&gt;data spp&lt;/div&gt;" style="text;html=1;align=center;verticalAlign=middle;whiteSpace=wrap;rounded=0;" parent="1" vertex="1">
          <mxGeometry x="260" y="840" width="150" height="120" as="geometry" />
        </mxCell>
        <mxCell id="mIeEXwpx3l7NrJqoONpe-21" value="data histori pembayaran&lt;div&gt;data pembayaran spp&lt;/div&gt;" style="text;html=1;align=center;verticalAlign=middle;whiteSpace=wrap;rounded=0;" parent="1" vertex="1">
          <mxGeometry x="650" y="483" width="150" height="120" as="geometry" />
        </mxCell>
      </root>
    </mxGraphModel>
  </diagram>
</mxfile>
